<?xml version="1.0" encoding="iso-8859-1"?>
<!-- Uploaded to: SVG Repo, www.svgrepo.com, Generator: SVG Repo Mixer Tools -->
<!DOCTYPE svg PUBLIC "-//W3C//DTD SVG 1.1//EN" "http://www.w3.org/Graphics/SVG/1.1/DTD/svg11.dtd">
<svg fill="#000000" version="1.1" id="Capa_1" xmlns="http://www.w3.org/2000/svg" xmlns:xlink="http://www.w3.org/1999/xlink" 
	 width="800px" height="800px" viewBox="0 0 31.836 31.837"
	 xml:space="preserve">
<g>
	<g>
		<path d="M21.544,18.366l0.004-2.248l1.112,3.551l2.289-0.858l-3.375-8.671l-0.019-0.003L19.456,9.69l0.002,0.227l0.002,0.502
			h-0.312l-0.002,0.383h-0.496H18.25l-0.684,0.818l-0.706-0.819h-1.004h-0.479l-0.017-0.383h-0.204l-0.122-0.322l-0.109-0.283
			l-1.5,0.279l-0.001-0.005l-0.089,0.021l-0.162,0.03v0.009l-2.503,0.607l3.561-1.616V9.014V7.496V7.43V6.996h0.206h0.294h0.27
			V6.574V5.981l0.584,0.1c0.009,0.002,0.858,0.146,1.621,0.146c0.767,0,1.646-0.145,1.654-0.146l0.578-0.096l0.004,0.587
			l0.008,1.975c1.541-0.71,2.615-2.258,2.615-4.064C22.067,2.007,20.06,0,17.584,0c-2.474,0-4.481,2.007-4.481,4.482
			c0,0.97,0.331,1.849,0.857,2.58l-7.073,3.527l0.242,1.024l-0.021,0.006l0.423,1.577l5.699-0.603l0.171,7.446h0.284l-0.009,1.967
			l-0.145,8.168h-0.595v1.663h0.583h3.224h0.601v-1.663h-0.602l-0.01-8.367l1.5-0.018l-0.05,8.385h-0.596v1.663h0.583h3.225h0.6
			v-1.663h-0.6l-0.066-8.135l-0.102-2h0.233L21.544,18.366z M17.439,4.629c0.025-0.137,0.07-0.186,0.106-0.275l0.115-0.202
			c0.01-0.067,0.047-0.124,0.058-0.194c0.024-0.138,0.056-0.283,0.052-0.412c0.014-0.258,0.016-0.455,0.016-0.455
			s0.146,0.134,0.261,0.403c0.049,0.136,0.108,0.304,0.11,0.501c0.002,0.098-0.019,0.208-0.039,0.313
			c-0.032,0.087-0.125,0.253-0.127,0.274c-0.035,0.072-0.106,0.171-0.099,0.215c-0.007,0.052-0.039,0.1-0.042,0.181
			c-0.023,0.14-0.046,0.292-0.044,0.42c-0.012,0.261-0.021,0.458-0.021,0.458s-0.144-0.139-0.256-0.405
			c-0.047-0.134-0.115-0.297-0.119-0.491C17.401,4.87,17.409,4.749,17.439,4.629z M16.134,4.629c0.025-0.137,0.07-0.186,0.106-0.275
			l0.115-0.202c0.01-0.067,0.048-0.124,0.058-0.194c0.025-0.138,0.055-0.283,0.052-0.412C16.478,3.287,16.48,3.09,16.48,3.09
			s0.147,0.134,0.261,0.403c0.049,0.136,0.108,0.304,0.11,0.501c0.002,0.098-0.018,0.208-0.039,0.313
			c-0.032,0.088-0.125,0.254-0.127,0.275c-0.034,0.072-0.107,0.171-0.098,0.215c-0.007,0.052-0.039,0.1-0.042,0.181
			c-0.024,0.14-0.046,0.292-0.044,0.42c-0.011,0.26-0.021,0.457-0.021,0.457s-0.143-0.138-0.255-0.405
			c-0.048-0.134-0.116-0.297-0.119-0.491C16.095,4.87,16.103,4.749,16.134,4.629z"/>
		<path d="M18.944,6.574H18.94c0,0-0.916,0.152-1.732,0.152c-0.818,0-1.705-0.152-1.705-0.152h-0.004v0.922h-0.766h-0.003
			l0.003,1.563l0.449,0.027l0.317,0.832h0.003h0.336l0.017,0.383h0.003h0.573h2.217l0.002-0.383h0.307L18.95,8.731
			c0.002-0.001,0.002-0.001,0.004-0.001L18.944,6.574z"/>
	</g>
</g>
</svg>